<svg width="170" height="69" viewBox="0 0 170 69" fill="none" xmlns="http://www.w3.org/2000/svg">
<path d="M0 15C0 6.71573 6.71573 0 15 0H54C62.2843 0 69 6.71573 69 15V54C69 62.2843 62.2843 69 54 69H15C6.71573 69 0 62.2843 0 54V15Z" fill="#C4C4C4"/>
<path d="M80.9531 43V25.2266H83.0527V34.04L90.7676 25.2266H93.27L83.0527 36.7012V43H80.9531ZM91.2559 43L84.4932 33.7471L85.8481 32.2578L93.8193 43H91.2559Z" fill="black"/>
<path d="M95.4307 43V25.2266H100.899C102.73 25.2266 104.134 25.7026 105.111 26.6548C106.087 27.5988 106.576 28.848 106.576 30.4023C106.576 31.9648 106.087 33.2303 105.111 34.1987C104.134 35.1672 102.73 35.6514 100.899 35.6514H97.5303V43H95.4307ZM97.5303 33.918H100.899C102.234 33.918 103.162 33.5802 103.683 32.9048C104.212 32.2293 104.476 31.3952 104.476 30.4023C104.476 29.4095 104.212 28.5876 103.683 27.9365C103.162 27.2855 102.234 26.96 100.899 26.96H97.5303V33.918ZM105.111 43L100.79 34.7847L102.889 34.4917L107.455 43H105.111Z" fill="black"/>
<path d="M109.884 43V25.2266H111.983V43H109.884Z" fill="black"/>
<path d="M115.987 43V25.2266H121.554C123.434 25.2266 124.866 25.7189 125.851 26.7036C126.843 27.6802 127.34 28.966 127.34 30.561C127.34 32.1642 126.843 33.4622 125.851 34.4551C124.866 35.4479 123.434 35.9443 121.554 35.9443H118.087V43H115.987ZM118.087 34.1987H121.554C122.921 34.1987 123.877 33.8447 124.422 33.1367C124.968 32.4287 125.24 31.5701 125.24 30.561C125.24 29.5519 124.968 28.7056 124.422 28.022C123.877 27.3302 122.921 26.9803 121.554 26.9722H118.087V34.1987Z" fill="black"/>
<path d="M128.207 26.9722V25.2266H141.415V26.9722H135.86V43H133.761V26.9722H128.207Z" fill="black"/>
<path d="M143.624 43V25.2266H154.22V26.9722H145.724V32.9536H153.072V34.7114H145.724V41.2544H154.342V43H143.624Z" fill="black"/>
<path d="M156.905 43V25.2266H159.005V34.04L166.72 25.2266H169.222L159.005 36.7012V43H156.905ZM167.208 43L160.445 33.7471L161.8 32.2578L169.771 43H167.208Z" fill="black"/>
<path d="M0 15C0 6.71573 6.71573 0 15 0H54C62.2843 0 69 6.71573 69 15V54C69 62.2843 62.2843 69 54 69H15C6.71573 69 0 62.2843 0 54V15Z" fill="url(#paint0_linear_809_208)"/>
<path d="M29.793 19.5625V48H24.8906V19.5625H29.793ZM46.8828 19.5625L35.3594 33.2539L28.7969 40.207L27.9375 35.3438L32.625 29.5625L40.9062 19.5625H46.8828ZM41.6094 48L32.2539 34.5234L35.6328 31.1836L47.4297 48H41.6094Z" fill="white"/>
<defs>
<linearGradient id="paint0_linear_809_208" x1="8.12545e-07" y1="10" x2="66.5" y2="73" gradientUnits="userSpaceOnUse">
<stop stop-color="#7B77DC"/>
<stop offset="1" stop-color="#DD8AA2"/>
</linearGradient>
</defs>
</svg>
